<svg width="20" height="20" fill="none" xmlns="http://www.w3.org/2000/svg"><path fill-rule="evenodd" clip-rule="evenodd" d="M2.93 2.93A9.908 9.908 0 000 10a9.908 9.908 0 002.93 7.07A9.944 9.944 0 0010 20h10v-2.39H10a7.585 7.585 0 01-5.384-2.226A7.585 7.585 0 012.39 10c0-2.031.792-3.943 2.226-5.384A7.585 7.585 0 0110 2.39h10V0H10a9.908 9.908 0 00-7.07 2.93zM10 4.404A5.602 5.602 0 004.403 10 5.602 5.602 0 0010 15.598h3.12l2.39-2.39H10A3.213 3.213 0 016.792 10 3.213 3.213 0 0110 6.792h5.51l-2.39-2.39H10zm0 6.792h7.522L18.717 10l-1.195-1.195H10a1.194 1.194 0 100 2.39zm10 2.013v2.39h-4.189l2.39-2.39h1.8zm0-6.416h-1.799l-2.39-2.39h4.19v2.39z" fill="#0CC"/></svg>